<svg width="48" height="48" viewBox="0 0 48 48" fill="none" xmlns="http://www.w3.org/2000/svg">
<path d="M28.4074 4.88361C33.0912 3.50601 37.9913 3.6962 41.1896 6.89435C43.3782 9.08296 44.159 12.107 43.9943 15.2381C43.8474 18.0279 42.9525 21.0479 41.4757 24.0418C42.2012 25.5125 42.7806 26.9767 43.2013 28.407C44.5789 33.0909 44.3878 37.991 41.1896 41.1893C37.9913 44.3874 33.0912 44.5776 28.4074 43.2C26.9772 42.7793 25.5127 42.2008 24.0421 41.4754C22.5716 42.2008 21.1071 42.7794 19.6769 43.2C14.9931 44.5775 10.0929 44.3875 6.89469 41.1893C4.70761 39.0021 3.92656 35.9802 4.09 32.8514C4.23583 30.0597 5.13069 27.0379 6.60855 24.0418C5.8831 22.5712 5.30462 21.1069 4.88394 19.6766C3.50637 14.9928 3.69661 10.0926 6.89469 6.89435C10.0929 3.69613 14.9931 3.50609 19.6769 4.88361C21.1071 5.30426 22.5716 5.88281 24.0421 6.60822C25.5126 5.88281 26.9772 5.30428 28.4074 4.88361ZM9.47476 28.8182C8.94595 30.3556 8.65153 31.7966 8.58414 33.0858C8.46526 35.3615 9.05178 36.981 10.0773 38.0067C11.5653 39.4946 14.3901 40.0651 18.4074 38.8836C18.6906 38.8003 18.9777 38.7086 19.2668 38.6092C17.4452 37.3163 15.6597 35.8117 13.966 34.118C12.2723 32.4243 10.7676 30.6397 9.47476 28.8182ZM18.4074 9.20001C14.3904 8.01861 11.5653 8.58823 10.0773 10.076C8.5893 11.564 8.01973 14.3896 9.20133 18.407C10.3556 22.3315 13.0666 26.8544 17.1486 30.9363C19.3717 33.1594 21.7255 34.9756 24.0421 36.3553C26.359 34.9755 28.7134 33.1596 30.9367 30.9363C31.4984 30.3747 32.0352 29.803 32.5461 29.2254C33.3693 28.2948 34.7911 28.2079 35.7218 29.0311C36.6526 29.8542 36.7402 31.276 35.9171 32.2069C35.3452 32.8535 34.7448 33.4915 34.1183 34.118C32.4247 35.8116 30.64 37.3164 28.8185 38.6092C29.1075 38.7086 29.3938 38.8003 29.6769 38.8836C33.6944 40.0652 36.52 39.4947 38.008 38.0067C39.4958 36.5186 40.0655 33.6938 38.8839 29.6766C38.4688 28.2649 37.8525 26.7757 37.0431 25.2576C36.9857 25.1673 36.9346 25.0733 36.8908 24.9764C35.4592 22.3621 33.4596 19.6702 30.9367 17.1473C28.7134 14.924 26.359 13.1072 24.0421 11.7274C21.7254 13.1071 19.3718 14.9241 17.1486 17.1473C16.5615 17.7344 16.0015 18.3319 15.4699 18.9363C14.6493 19.8694 13.2272 19.9609 12.2941 19.1404C11.361 18.3198 11.2703 16.8978 12.091 15.9647C12.6861 15.288 13.3112 14.6204 13.966 13.9656C15.6597 12.2719 17.4452 10.7673 19.2668 9.47443C18.9777 9.37498 18.6906 9.28332 18.4074 9.20001ZM24.0002 19.4998C26.4853 19.4999 28.5 21.5147 28.5002 23.9998C28.5002 26.485 26.4854 28.4997 24.0002 28.4998C21.5149 28.4998 19.5002 26.4851 19.5002 23.9998C19.5003 21.5146 21.5149 19.4998 24.0002 19.4998ZM38.008 10.076C36.5199 8.5881 33.6942 8.01845 29.6769 9.20001C29.3938 9.28329 29.1075 9.37502 28.8185 9.47443C30.64 10.7673 32.4247 12.272 34.1183 13.9656C35.812 15.6593 37.3167 17.4439 38.6095 19.2654C39.1378 17.7296 39.4333 16.2899 39.5011 15.0018C39.621 12.7236 39.0342 11.1023 38.008 10.076Z" fill="#C1F17E"/>
</svg>
